<svg width="314" height="484" viewBox="0 0 314 484" fill="none" xmlns="http://www.w3.org/2000/svg">
<rect x="2" width="287" height="17" fill="black"/>
<path d="M7.856 68.92V76.408H45.584L6.8 130.936V138.808H57.296V131.512H17.264L56.144 76.888V68.92H7.856ZM102.343 68.824H93.7025V139.576H102.343V68.824ZM193.933 69.4V124.984L148.813 69.4H140.653V139.288H149.485V83.8L194.221 139H203.053V69.4H193.933ZM281.343 120.952L287.872 139.288H298.528L271.935 69.4H263.295L235.647 139.288H246.015L252.543 120.952H281.343ZM267.903 79L278.751 112.504H254.847L267.903 79Z" fill="black"/>
<path d="M44.788 204.92C42.436 198.704 35.52 195.596 24.04 195.596C17.488 195.596 12.476 196.94 9.004 199.628C5.532 202.316 3.796 206.292 3.796 211.556V211.892C3.796 218.556 7.688 223.344 15.472 226.256C30.2 230.232 37.564 235.384 37.564 241.712C37.564 248.152 32.58 251.372 22.612 251.372C15.556 251.372 10.46 248.964 7.324 244.148L0.52 246.08C3.096 254.144 10.488 258.176 22.696 258.176C38.208 258.176 45.964 252.492 45.964 241.124C45.964 232.948 39.16 226.34 25.552 221.3C16.368 218.724 11.776 215.224 11.776 210.8C11.776 208.056 12.924 205.956 15.22 204.5C17.516 203.044 20.736 202.316 24.88 202.316C32.72 202.316 37.116 204.08 38.068 207.608L44.788 204.92ZM125.393 241.208L131.105 257.252H140.429L117.161 196.1H109.601L85.4092 257.252H94.4812L100.193 241.208H125.393ZM113.633 204.5L123.125 233.816H102.209L113.633 204.5ZM228.239 213.488C228.239 209.344 227.175 206.04 225.047 203.576C220.791 198.928 215.415 196.464 208.919 196.184C208.415 196.128 206.903 196.1 204.383 196.1H182.459V257.252H190.271V232.136C198.671 232.136 203.403 232.108 204.467 232.052L220.763 257.42H231.179L211.439 231.548C218.327 230.596 222.807 228.272 224.879 224.576C227.119 220.992 228.239 217.576 228.239 214.328V213.488ZM190.271 225.752V202.484H206.819C212.699 202.484 216.563 204.052 218.411 207.188C219.419 208.812 219.923 211.164 219.923 214.244C219.923 217.324 219.447 219.508 218.495 220.796C216.031 224.1 211.775 225.752 205.727 225.752H190.271ZM270.423 254.312C274.679 257.224 279.439 258.68 284.703 258.68C289.967 258.68 294.727 257.252 298.983 254.396C303.183 251.652 306.683 247.844 309.483 242.972C312.115 238.156 313.431 232.724 313.431 226.676C313.431 220.628 312.115 215.112 309.483 210.128C306.795 205.256 303.295 201.42 298.983 198.62C294.671 195.82 289.911 194.42 284.703 194.42C279.495 194.42 274.707 195.904 270.339 198.872C266.027 201.84 262.555 205.788 259.923 210.716C257.291 215.644 255.975 220.992 255.975 226.76C255.975 232.584 257.291 237.904 259.923 242.72C262.555 247.592 266.055 251.456 270.423 254.312ZM285.039 200.888C290.807 200.944 295.511 203.352 299.151 208.112C302.735 212.872 304.527 219.06 304.527 226.676C304.527 234.292 302.651 240.396 298.899 244.988C295.147 249.748 290.387 252.128 284.619 252.128C278.795 252.128 274.035 249.72 270.339 244.904C266.699 240.088 264.879 234.068 264.879 226.844C264.879 219.564 266.811 213.432 270.675 208.448C274.483 203.408 279.243 200.888 284.955 200.888H285.039Z" fill="black"/>
<path d="M38.32 433.188L52.516 483.252H59.236L76.54 421.344H68.644L55.708 469.056L42.436 421.848H34.624L21.016 468.888L8.164 421.344H0.52L17.488 483.252H24.208L38.32 433.188ZM129.127 467.208L134.839 483.252H144.163L120.895 422.1H113.335L89.1433 483.252H98.2153L103.927 467.208H129.127ZM117.367 430.5L126.859 459.816H105.943L117.367 430.5ZM205.513 433.188L219.709 483.252H226.429L243.733 421.344H235.837L222.901 469.056L209.629 421.848H201.817L188.209 468.888L175.357 421.344H167.713L184.681 483.252H191.401L205.513 433.188ZM291.28 467.208L296.992 483.252H306.316L283.048 422.1H275.488L251.296 483.252H260.368L266.08 467.208H291.28ZM279.52 430.5L289.012 459.816H268.096L279.52 430.5Z" fill="black"/>
<rect x="100" y="320" width="118" height="19" fill="black"/>
</svg>
